<svg width="651" height="878" viewBox="0 0 651 878" fill="none" xmlns="http://www.w3.org/2000/svg">
<g clip-path="url(#clip0_1105_35)">
<path d="M209.036 668.769V459.281L247.031 460.051L284.77 460.822L285.54 534.758L286.053 608.439H292.215C299.66 608.439 303.511 604.074 307.875 589.954C309.672 583.793 315.32 569.16 320.711 557.094C325.846 545.027 333.034 527.827 336.885 518.842C340.736 509.856 348.437 493.169 354.085 481.616L364.354 460.822L406.201 460.051C429.049 459.795 447.79 460.051 447.79 461.078C447.79 461.849 441.629 473.144 433.927 486.237C406.971 531.164 379.244 584.563 381.812 586.874C382.582 587.644 389.257 587.13 396.445 585.333C410.822 581.996 423.145 583.28 431.873 589.441C437.521 593.292 437.521 593.805 437.521 670.823V748.611L424.171 755.542C416.726 759.393 399.783 768.635 386.69 776.594C371.029 785.836 362.557 789.43 361.787 787.376C361.017 785.836 360.247 756.312 359.99 722.168L359.22 659.784L329.697 670.309C313.523 675.957 297.349 681.605 293.755 682.632L287.337 684.429L286.053 759.907L284.77 835.384L257.813 851.557C242.923 860.286 229.83 867.474 228.29 867.731C227.006 867.731 222.899 870.042 219.305 872.866C215.711 875.69 212.116 878 211.089 878C209.806 878 209.036 783.782 209.036 668.769Z" fill="#F53543"/>
<path d="M210.319 416.408C208.008 414.098 209.035 0 211.089 0C212.372 0 220.588 4.36433 229.83 9.75556C238.815 15.1468 255.759 25.1591 267.312 31.8339L288.62 44.1567L289.133 193.314L289.903 342.728L319.427 346.066C335.6 347.863 371.542 351.97 399.012 355.051L449.073 360.699V388.425V415.895L330.209 416.922C265.001 417.178 211.089 416.922 210.319 416.408Z" fill="#F53543"/>
<path d="M154 700.5L155.235 576.5C129.235 547 91.1309 526.197 91.1309 434.5C91.1309 345.5 131.667 301 154 280C156.469 258.5 154 207 154 173C108.5 186.5 -4.36928 289 0.130732 434.5C5.29569 601.5 105.333 666.667 154 700.5Z" fill="white"/>
<path d="M496.235 700.5L495 576.5C521 547 559.104 526.197 559.104 434.5C559.104 345.5 518.568 301 496.235 280C493.765 258.5 496.235 207 496.235 173C541.735 186.5 654.604 289 650.104 434.5C644.939 601.5 544.902 666.667 496.235 700.5Z" fill="white"/>
</g>
<defs>
<clipPath id="clip0_1105_35">
<rect width="651" height="878" fill="white"/>
</clipPath>
</defs>
</svg>
